<svg width="0" height="0"><symbol xmlns="http://www.w3.org/2000/svg" id="icon-affiliate" fill="none" viewBox="0 0 24 24"><g clip-path="url(#a)"><path fill="currentColor" fill-rule="evenodd" d="m8.42 13.507 6.372 2.975a1.087 1.087 0 0 1 .451 1.579l-.356.547a.544.544 0 0 0 .33.827q1.068.25 2.145-.248c1.435-.663 6.138-3.552 6.138-1.773q0 1.56-6.917 5.365a4.35 4.35 0 0 1-4.113.042l-2.778-1.457a9.24 9.24 0 0 0-8.359-.115l-.833.408v-6.84l4.223-1.49a4.9 4.9 0 0 1 3.698.18M15.929.682a7.067 7.067 0 1 1 0 14.135 7.067 7.067 0 0 1 0-14.135m.534 1.631h-1.24v1.034a3 3 0 0 0-1.26.497c-.61.418-.909 1.017-.909 1.806l.003.125c.037.823.444 1.451 1.241 1.884l.924.338v2.855a1.2 1.2 0 0 1-.41-.25c-.275-.264-.43-.718-.478-1.34h-1.387q.107 1.47.86 2.189.522.49 1.415.64v1.106h1.241v-1.053c.73-.047 1.328-.227 1.806-.538.646-.43.969-1.064.969-1.914 0-.873-.419-1.542-1.244-2.009-.072-.048-.586-.24-1.531-.586V4.466q.448.054.718.251c.287.203.466.55.538 1.052h1.363c-.12-.873-.418-1.507-.909-1.89-.418-.334-.992-.537-1.71-.585zm0 6.136a.6.6 0 0 1 .131.047c.826.287 1.244.706 1.244 1.244 0 .395-.167.706-.502.921-.24.156-.538.251-.873.3zM15.22 4.553v2.043q-.768-.405-.768-.946c0-.443.155-.766.478-.957q.123-.083.29-.14" clip-rule="evenodd"/></g><defs><clipPath id="a"><path fill="currentColor" d="M0 0h24v24H0z"/></clipPath></defs></symbol><symbol xmlns="http://www.w3.org/2000/svg" id="icon-arrow_left" fill="none" viewBox="0 0 24 24"><path fill="currentColor" d="M14.829 21.441a2.07 2.07 0 0 0 2.827 0 1.846 1.846 0 0 0 0-2.697L10.586 12l7.07-6.744a1.846 1.846 0 0 0 0-2.697 2.07 2.07 0 0 0-2.827 0L6.35 10.643l-.008.008c-.293.28-.476.624-.549.984a1.85 1.85 0 0 0 .55 1.714l.007.008z"/></symbol><symbol xmlns="http://www.w3.org/2000/svg" id="icon-bonus" fill="none" viewBox="0 0 24 24"><path fill="currentColor" d="M10.37 23.12V7.352h3.159V23.12zm-6.434 0c-2.736 0-2.438-2.04-2.438-2.475v-7.771h7.494v10.242h-.019zm10.937 0V12.878h7.502v7.767a2.14 2.14 0 0 1-2.438 2.475zm0-11.822.03-3.942h7.493a.776.776 0 0 1 .75.784v2.364a.77.77 0 0 1-.75.784zm-13.369 0a.73.73 0 0 1-.53-.23.8.8 0 0 1-.223-.56v-2.36a.775.775 0 0 1 .75-.784h7.495v3.942zm2.772-7.921A2.51 2.51 0 0 1 6.651.75c.389-.009.774.079 1.12.255.309.148.583.359.806.618l3.401 4.226 3.391-4.258a2.388 2.388 0 0 1 4.036.655 2.66 2.66 0 0 1-.501 2.879l-.013-.019a2.37 2.37 0 0 1-1.736.769H6.709A2.5 2.5 0 0 1 4.274 3.37z"/></symbol><symbol xmlns="http://www.w3.org/2000/svg" id="icon-cart" viewBox="0 0 1024 1024"><path fill="currentColor" d="M793.448 798.853h-502.48c-57.268 0-105.396-44.734-109.568-101.85l-31.48-431.066a85.43 85.43 0 0 0-25.998-55.41L17.465 108.032a28.444 28.444 0 1 1 39.443-40.979l106.477 102.495a142.3 142.3 0 0 1 43.292 92.236l31.479 431.066a53.19 53.19 0 0 0 52.83 49.114h502.481a60.985 60.985 0 0 0 59.222-46.213L955.145 287.1c2.333-9.292.304-18.944-5.594-26.472s-14.753-11.87-24.33-11.87H391.87a28.444 28.444 0 1 1 0-56.89h533.333c27.23 0 52.452 12.307 69.177 33.773s22.528 48.906 15.929 75.302l-102.457 408.67a117.855 117.855 0 0 1-114.404 89.24m-128 122.159a62.502 62.502 0 1 0 125.004 0 62.502 62.502 0 1 0-125.004 0m-359.405 0a62.502 62.502 0 1 0 125.004 0 62.502 62.502 0 1 0-125.004 0"/><path fill="currentColor" d="M746.23 520.457H403.362a28.444 28.444 0 1 1 0-56.888h342.87a28.444 28.444 0 1 1 0 56.888"/></symbol><symbol xmlns="http://www.w3.org/2000/svg" id="icon-close" fill="none" viewBox="0 0 24 24"><mask id="a" width="24" height="24" x="0" y="0" maskUnits="userSpaceOnUse" style="mask-type:alpha"><path fill="currentColor" d="M0 0h24v24H0z"/></mask><g mask="url(#a)"><path fill="currentColor" d="M7.1 18.3a.99.99 0 1 1-1.4-1.4l4.9-4.9-4.9-4.9a.99.99 0 1 1 1.4-1.4l4.9 4.9 4.9-4.9a.99.99 0 1 1 1.4 1.4L13.4 12l4.9 4.9a.99.99 0 1 1-1.4 1.4L12 13.4z"/></g></symbol><symbol xmlns="http://www.w3.org/2000/svg" id="icon-favorites" fill="none" viewBox="0 0 24 24"><path fill="currentColor" d="M11.8 0a4.1 4.1 0 0 1 2.06.558l6.68 3.912A4.16 4.16 0 0 1 22.047 6c.361.635.552 1.356.554 2.089v7.823A4.24 4.24 0 0 1 22.047 18a4.16 4.16 0 0 1-1.507 1.531l-6.68 3.911a4.1 4.1 0 0 1-2.337.55 4.1 4.1 0 0 1-1.783-.55l-6.68-3.91A4.16 4.16 0 0 1 1.555 18 4.24 4.24 0 0 1 1 15.912V8.09A4.24 4.24 0 0 1 1.554 6 4.16 4.16 0 0 1 3.06 4.47L9.74.558A4.1 4.1 0 0 1 11.8 0m.488 5.093a.534.534 0 0 0-.975 0L9.717 8.677a.53.53 0 0 1-.432.313l-3.902.412a.533.533 0 0 0-.3.927l2.914 2.627c.141.128.205.32.165.507l-.814 3.839a.533.533 0 0 0 .788.572l3.4-1.96a.53.53 0 0 1 .532 0l3.4 1.96c.4.23.884-.12.788-.572l-.815-3.84a.53.53 0 0 1 .165-.506l2.915-2.627a.534.534 0 0 0-.3-.927l-3.904-.412a.53.53 0 0 1-.43-.313z"/></symbol><symbol xmlns="http://www.w3.org/2000/svg" id="icon-globe" fill="none" viewBox="0 0 24 24"><path fill="currentColor" d="M12 0C5.373 0 0 5.373 0 12s5.373 12 12 12 12-5.373 12-12S18.627 0 12 0m9.167 8a10 10 0 0 1 .834 4.001 10 10 0 0 1-.834 4h-4.51c.221-1.24.341-2.589.341-4s-.12-2.76-.34-4zM9.002 12.002c0-1.437.11-2.796.31-4h5.374c.2 1.204.312 2.563.312 4s-.112 2.796-.312 4H9.315a24.6 24.6 0 0 1-.313-4m10.999-6h-3.808c-.465-1.562-1.103-2.846-1.854-3.724A10 10 0 0 1 20 6m-8-2.999c.888 0 1.688 1.16 2.237 3H9.763c.55-1.841 1.35-3 2.237-3M9.661 2.28c-.751.876-1.389 2.164-1.852 3.724H4.001a10 10 0 0 1 5.66-3.724M2.833 8h4.51a23 23 0 0 0-.341 4c0 1.411.12 2.76.34 4h-4.51a10 10 0 0 1-.833-4c0-1.423.299-2.776.834-4m1.166 10h3.808c.465 1.562 1.103 2.846 1.854 3.724A10 10 0 0 1 4 18.001M12 21c-.888 0-1.687-1.16-2.237-3h4.474c-.553 1.841-1.35 3-2.237 3m2.339.723c.751-.875 1.389-2.164 1.852-3.723h3.808a10 10 0 0 1-5.66 3.723"/></symbol><symbol xmlns="http://www.w3.org/2000/svg" id="icon-help" fill="none" viewBox="0 0 14 14"><path fill="currentColor" d="M12.876 11.803V1.61a.536.536 0 0 0-.536-.536H2.146C2.146.48 2.626 0 3.22 0h9.657c.593 0 1.073.48 1.073 1.073v9.657c0 .593-.48 1.073-1.073 1.073M11.803 3.22v9.657c0 .593-.48 1.073-1.073 1.073H1.073A1.073 1.073 0 0 1 0 12.876V3.22c0-.593.48-1.073 1.073-1.073h9.657c.593 0 1.073.48 1.073 1.073M9.657 5.366h-7.51a.536.536 0 0 0 0 1.072h7.51a.536.536 0 1 0 0-1.072m0 3.218h-7.51a.536.536 0 0 0 0 1.072h7.51a.536.536 0 1 0 0-1.072"/></symbol><symbol xmlns="http://www.w3.org/2000/svg" id="icon-home" viewBox="0 0 1024 1024"><path fill="currentColor" d="M812.698 963.942H220.672c-73.42 0-133.12-59.699-133.12-133.12V387.686c0-47.001 25.19-90.982 65.69-114.79l307.353-180.48a132.71 132.71 0 0 1 138.138 1.997l284.672 178.534c39.065 24.525 62.413 66.663 62.413 112.794v445.081c0 73.421-59.7 133.12-133.12 133.12M528.026 135.475a71.26 71.26 0 0 0-36.301 9.933L184.37 325.888c-21.811 12.8-35.379 36.506-35.379 61.798v443.136c0 39.527 32.154 71.68 71.68 71.68h592.026c39.526 0 71.68-32.153 71.68-71.68V385.741c0-24.832-12.544-47.514-33.588-60.723L566.118 146.483a71.77 71.77 0 0 0-38.092-11.008"/><path fill="currentColor" d="M682.035 764.723H351.283c-16.947 0-30.72-13.773-30.72-30.72s13.773-30.72 30.72-30.72h330.752c16.947 0 30.72 13.773 30.72 30.72s-13.721 30.72-30.72 30.72"/></symbol><symbol xmlns="http://www.w3.org/2000/svg" id="icon-hot" fill="none" viewBox="0 0 24 24"><g clip-path="url(#a)"><path fill="currentColor" d="M9.728 1.104C9.376 2.232 8.415 4.26 5.804 6.947 1.299 11.59.702 19.07 7.624 22.747c.568.303 1.042.117 1.399-.256q1.768-1.846 1.537-5.415c-.043-.655.25-.826.828-.377 1.642 1.27 2.713 3.228 2.713 5.333 0 .716.287 1.094.954.965 4.415-.856 9.794-7.185 3.997-16.451-.347-.472-.86-.472-.851.176a9.4 9.4 0 0 1-.272 2.361c-.132.537-.637.53-.756 0Q16.09 4.256 11.147.87c-.89-.608-1.213-.421-1.419.235"/></g><defs><clipPath id="a"><path fill="currentColor" d="M.5.5h23v23H.5z"/></clipPath></defs></symbol><symbol xmlns="http://www.w3.org/2000/svg" id="icon-menu" fill="none" viewBox="0 0 24 24"><path fill="currentColor" d="M6.615 2a4.615 4.615 0 0 0 0 9.23h3.846a.77.77 0 0 0 .77-.769V6.616A4.615 4.615 0 0 0 6.614 2m3.846 10.77H6.615a4.615 4.615 0 1 0 4.615 4.614v-3.846a.77.77 0 0 0-.769-.769M17.384 2a4.615 4.615 0 0 0-4.615 4.616v3.845a.77.77 0 0 0 .769.77h3.846a4.615 4.615 0 1 0 0-9.23m.001 10.769H13.54a.77.77 0 0 0-.769.768v3.846a4.615 4.615 0 1 0 4.615-4.615"/></symbol><symbol xmlns="http://www.w3.org/2000/svg" id="icon-message" fill="none" viewBox="0 0 24 24"><path fill="currentColor" d="M14.378 19.802a2.709 2.709 0 0 1-5.4 0zM12.13 1.692a6.316 6.316 0 0 1 6.224 5.243l.314 1.823a29.5 29.5 0 0 0 1.954 6.609l.287.67a1.807 1.807 0 0 1-1.66 2.519H4.752a1.807 1.807 0 0 1-1.652-2.54l.289-.65A28.2 28.2 0 0 0 5.394 8.74l.312-1.805a6.316 6.316 0 0 1 6.223-5.243z"/></symbol><symbol xmlns="http://www.w3.org/2000/svg" id="icon-promotion" fill="none" viewBox="0 0 20 20"><path fill="currentColor" d="m16.456 3.388 2.918 2.648c.392.355.616.86.616 1.388l.01 10.14c0 .691-.56 1.253-1.25 1.253h-6.246a1.25 1.25 0 0 1-1.252-1.25l-.01-10.14a1.87 1.87 0 0 1 .614-1.392l2.917-2.647a1.25 1.25 0 0 1 1.683 0m-.821 2.608c-.605 0-1.095.529-1.095 1.181 0 .653.49 1.181 1.095 1.181s1.095-.528 1.095-1.18c0-.653-.49-1.182-1.095-1.182"/><path fill="currentColor" d="m12.429 4.193-1.124 1.02c-.637.578-1.004 1.43-1.003 2.326l.01 9.932c0 .113-.002.183.023.334s-.032.166-.142.134q-.73-.209-2.189-.633c-.667-.193-1.063-.931-.885-1.65l2.374-9.597a2 2 0 0 1 1.017-1.31l1.708-.863a.187.187 0 0 1 .252.083.19.19 0 0 1-.041.224"/><path fill="currentColor" d="m11.433 3.31-1.349.695c-.764.393-1.339 1.12-1.57 1.987l-2.56 9.596c-.02.075-.04.199-.043.302s-.012.232-.3.057q-.614-.376-1.846-1.114c-.594-.359-.785-1.176-.428-1.825l4.777-8.654a2 2 0 0 1 1.323-1.003l1.873-.391a.188.188 0 0 1 .125.35z"/><path fill="currentColor" d="m10.734 2.145-1.483.321c-.84.182-1.584.736-2.032 1.513l-4.956 8.606q-.071.123-.127.25c-.033.074-.038.248-.235.073q-.55-.49-1.557-1.619c-.481-.5-.454-1.338.06-1.872l6.853-7.124a2 2 0 0 1 1.537-.626l1.91.107a.188.188 0 0 1 .03.37"/></symbol><symbol xmlns="http://www.w3.org/2000/svg" id="icon-recent" fill="none" viewBox="0 0 24 24"><path fill="currentColor" d="M11.8 0a4.1 4.1 0 0 1 2.06.558l6.68 3.912A4.16 4.16 0 0 1 22.047 6c.361.635.552 1.356.554 2.089v7.823A4.24 4.24 0 0 1 22.047 18a4.16 4.16 0 0 1-1.507 1.531l-6.68 3.911a4.1 4.1 0 0 1-2.337.55 4.1 4.1 0 0 1-1.783-.55l-6.68-3.91A4.16 4.16 0 0 1 1.555 18 4.24 4.24 0 0 1 1 15.912V8.09A4.24 4.24 0 0 1 1.554 6 4.16 4.16 0 0 1 3.06 4.47L9.74.558A4.1 4.1 0 0 1 11.8 0m-.295 4a.65.65 0 0 0-.635.547L9.858 10.79a1.9 1.9 0 0 0-.28 1.476c.059.274.177.532.346.756q.162.213.375.373a1.89 1.89 0 0 0 1.763.437l6.478.382a.651.651 0 0 0 .293-1.25l-5.541-2.376-1.14-6.06A.65.65 0 0 0 11.505 4"/></symbol><symbol xmlns="http://www.w3.org/2000/svg" id="icon-search" fill="none" viewBox="0 0 14 14"><path fill="currentColor" fill-rule="evenodd" d="M9.076 9.888a5.216 5.216 0 1 1 .789-.783l.541.541-.786.786zm.294-4.071a3.554 3.554 0 1 1-7.108 0 3.554 3.554 0 0 1 7.108 0" clip-rule="evenodd"/><path fill="currentColor" fill-rule="evenodd" d="M12.456 13.36a.25.25 0 0 1-.357 0l-2.577-2.593a.25.25 0 0 1 .001-.355l.872-.872a.25.25 0 0 1 .357 0l2.576 2.593a.25.25 0 0 1 0 .356z" clip-rule="evenodd"/></symbol><symbol xmlns="http://www.w3.org/2000/svg" id="icon-service" fill="none" viewBox="0 0 24 24"><path fill="currentColor" d="M8.14 12.748c.914 0 1.655.741 1.655 1.655v6.454c0 .914-.741 1.655-1.656 1.655H6.404a2.48 2.48 0 0 1-2.482-2.482v-4.799a2.48 2.48 0 0 1 2.482-2.482zm9.528 0a2.48 2.48 0 0 1 2.482 2.482v4.8a2.48 2.48 0 0 1-2.482 2.482h-1.736a1.655 1.655 0 0 1-1.655-1.656v-6.454c0-.914.741-1.655 1.655-1.655zM12 .996c6.527 0 11.837 5.194 11.996 11.662l.004.3v4.885c0 .674-.548 1.221-1.225 1.221-.634 0-1.155-.48-1.218-1.096l-.007-.125v-4.885c0-5.258-4.276-9.52-9.55-9.52-5.186 0-9.405 4.119-9.547 9.253l-.004.267v4.9c0 .675-.548 1.221-1.225 1.221-.634 0-1.155-.48-1.218-1.096L0 17.859v-4.9C0 6.352 5.373.997 12 .997"/></symbol><symbol xmlns="http://www.w3.org/2000/svg" id="icon-settings" fill="none" viewBox="0 0 24 24"><g clip-path="url(#a)"><path fill="currentColor" d="M16.15 1.448a3.2 3.2 0 0 1 2.772 1.6l4.151 7.197a3.2 3.2 0 0 1 0 3.197l-4.151 7.197a3.2 3.2 0 0 1-2.771 1.6h-8.3c-1.143 0-2.2-.61-2.77-1.6L.928 13.442a3.2 3.2 0 0 1 0-3.197L5.08 3.048a3.2 3.2 0 0 1 2.771-1.6zM12 7.45a4.5 4.5 0 0 0-4.497 4.502 4.5 4.5 0 0 0 4.498 4.501 4.5 4.5 0 0 0 4.498-4.501A4.5 4.5 0 0 0 12 7.449"/></g><defs><clipPath id="a"><path fill="currentColor" d="M0 0h24v24H0z"/></clipPath></defs></symbol><symbol xmlns="http://www.w3.org/2000/svg" id="icon-tournament" fill="none" viewBox="0 0 24 24"><path fill="currentColor" d="M20.32 4.052v-1.65c0-.77-.672-1.405-1.516-1.405H5.486c-.831 0-1.517.623-1.517 1.405v1.589C1.727 4.333 0 6.154 0 8.33c0 2.395 2.084 4.351 4.655 4.4 1.266 2.676 4.14 4.546 7.49 4.546 3.363 0 6.237-1.882 7.503-4.558C22.075 12.534 24 10.628 24 8.33c0-2.078-1.582-3.826-3.68-4.278M2.11 8.33c0-1.1.791-2.029 1.86-2.335v3.826c0 .293.026.574.065.856-1.108-.27-1.925-1.223-1.925-2.347m13.938-.037-1.53 1.467.357 2.065c.118.71-.29.978-.937.648l-1.885-1.039-1.886.978c-.646.33-1.055.049-.936-.648L9.587 9.7l-1.53-1.467c-.527-.489-.356-.978.356-1.088l2.11-.269.936-1.796c.29-.648.818-.648 1.174 0l.936 1.845 2.11.27c.725.121.897.61.37 1.1m4.22 2.298c.026-.257.053-.501.053-.758v-3.73c.923.38 1.57 1.235 1.57 2.237s-.673 1.882-1.623 2.249m-4.312 12.186H8.044c-.58 0-1.055-.44-1.055-.978s.475-.978 1.055-.978h7.912c.58 0 1.055.44 1.055.978s-.475.977-1.055.977"/><path fill="currentColor" d="M10.945 16.971h2.11v4.4h-2.11z"/></symbol><symbol xmlns="http://www.w3.org/2000/svg" id="icon-truco" fill="none" viewBox="0 0 24 24"><g clip-path="url(#a)"><path fill="currentColor" d="M11.682.52a2.01 2.01 0 0 1 2.555 1.296l4.859 15.203a2.073 2.073 0 0 1-1.314 2.59L7.627 23.002a2.01 2.01 0 0 1-2.556-1.296L.213 6.504a2.074 2.074 0 0 1 1.313-2.59zm5.028.784a2.025 2.025 0 0 1 2.289 1.74l2.016 15.175a2.055 2.055 0 0 1-1.752 2.302l-2.942.409 2.688-.898a2.073 2.073 0 0 0 1.313-2.59L15.328 1.816a2 2 0 0 0-.127-.303zm-6.166 6.908c-.36-1.032-1.44-1.596-2.415-1.24-.983.36-1.459 1.5-1.089 2.536.191.547.583.923.986 1.116.003 0 .055.018.05.071-.004.035-.049.038-.054.038-.237-.03-.556-.03-.81.063-.99.362-1.443 1.449-1.08 2.488.376 1.08 1.398 1.574 2.356 1.216.678-.247 1.107-.87 1.235-1.516.037-.156.006-.225.075-.242.059-.021.104.13.11.148.277.963.132 1.58-.195 2.183-.063.13.026.196.071.18l2.205-.805c.037-.014.07-.133-.063-.182-.634-.252-1.114-.641-1.503-1.564-.009-.024-.065-.163-.007-.185.067-.025.085.05.204.149.552.451 1.253.607 1.894.374.96-.35 1.444-1.395 1.068-2.474-.363-1.04-1.37-1.594-2.384-1.224a1.7 1.7 0 0 0-.65.47c-.004.004-.039.037-.069-.002-.04-.028-.008-.082-.004-.088.192-.41.26-.963.069-1.51m10.59-4.704a2.055 2.055 0 0 1 1.753 2.302l-1.212 9.16-1.541-11.6z"/></g><defs><clipPath id="a"><path fill="currentColor" d="M0 0h24v24H0z"/></clipPath></defs></symbol><symbol xmlns="http://www.w3.org/2000/svg" id="icon-vip" fill="none" viewBox="0 0 24 24"><path fill="currentColor" d="M10.95 3.1a1.32 1.32 0 0 1 .314-1.367L12 .997l.722.722c.365.365.484.91.305 1.393l-.236.638c1.073.042 1.851.167 1.851.315 0 .155-.847.284-1.992.32v.048a.934.934 0 1 1-1.321 0v-.048c-1.135-.037-1.972-.166-1.972-.32 0-.146.763-.27 1.819-.314zM12.66 19V6.34c.667-.496 1.548-.718 2.498-.714 1.08.005 2.165.305 2.94.723 1.166.676 1.917 1.636 2.224 2.684.307 1.047.185 2.229-.482 3.385L16.278 19zm-1.32 0V6.487a4.766 4.766 0 0 0-6.745 6.368L8.143 19zm-4.722 0L3.45 13.516a6.06 6.06 0 0 1-.717-4.133A3.26 3.26 0 0 0 .438 14.23L3.19 19zm11.162 0h3.04l2.743-4.75a3.257 3.257 0 0 0-1.796-4.72c.137 1.165-.113 2.386-.778 3.54zM2.09 21.755c0 .73.591 1.322 1.321 1.322H20.59a1.321 1.321 0 1 0 0-2.643H3.41a1.32 1.32 0 0 0-1.321 1.321"/></symbol></svg>