<svg width="24" height="24" viewBox="0 0 24 24" fill="none" xmlns="http://www.w3.org/2000/svg">
<path d="M23 12.1148C23 10.5015 22.7067 9.03488 21.9733 7.56824C20.9467 7.86157 20.0667 8.1549 19.04 8.44822C21.0933 11.5282 21.68 15.3415 20.6533 18.7147C22.12 16.9548 23 14.6081 23 12.1148Z" fill="#B3B8C1"/>
<path d="M18.0137 8.88841C16.2537 9.62173 14.6404 10.3551 13.0271 11.3817C13.3204 14.0217 13.1737 16.6616 12.8804 19.3016V19.5949C12.7337 20.7682 12.4404 21.9416 12.0004 23.1149C14.6404 23.1149 16.987 22.2349 18.747 20.7682C20.8003 16.955 20.507 12.4084 18.0137 8.88841ZM6.28049 8.44842C7.74713 9.62173 9.36044 10.6484 10.9738 11.5284C13.1737 9.91506 15.5204 8.74174 17.867 7.71509C18.0137 7.71509 18.0137 7.56843 18.1603 7.56843C19.187 7.12844 20.3603 6.83511 21.3869 6.54178C20.2136 4.34181 18.1603 2.7285 15.8137 1.84851C11.8537 2.14184 8.04046 4.63514 6.28049 8.44842ZM11.7071 20.0349H10.9738C7.4538 20.0349 4.08052 18.5683 1.73389 16.075C3.20053 19.8883 6.72048 22.6749 10.9738 23.1149C11.2671 22.0882 11.4137 21.0616 11.7071 20.0349Z" fill="#B3B8C1"/>
<path d="M11.8532 18.8613C12.1465 16.9546 12.2932 15.1947 12.1465 13.288C9.65321 12.2614 7.45324 10.7947 5.39994 9.18142C5.25327 9.18142 5.25327 9.03475 5.10661 9.03475C4.22662 8.15477 3.34663 7.42144 2.61331 6.54146C1.58666 8.15477 1 10.0614 1 12.1147C1 12.5547 1 12.9947 1.14666 13.4347C3.34663 17.1013 7.45324 19.1546 11.8532 18.8613ZM5.39994 7.71477C7.01325 4.48815 9.94654 2.14152 13.4665 1.26153C13.0265 1.26153 12.4398 1.11487 11.9998 1.11487C8.33323 1.11487 5.10661 2.87484 3.19997 5.66147C3.93329 6.39479 4.66661 7.12812 5.39994 7.71477Z" fill="#B3B8C1"/>
</svg>
